<svg id="Layer_1" data-name="Layer 1" xmlns="http://www.w3.org/2000/svg" width="100.01" height="100.1" viewBox="0 0 100.01 100.1"><title>F1_Logo_Icon_White_TM</title><path d="M88,96.69H86.64V96.25h3.18v0.44H88.46v3.42H88V96.69Zm2.49-.44h0.65l0.65,1.58,0.39,1.08h0.05l0.39-1.08,0.63-1.58H93.9v3.86H93.42v-2l0.06-1.23h0l-1,2.65H92l-1-2.65H90.87l0.06,1.23v2H90.47V96.25h0Z" transform="translate(0.03 -0.01)" fill="#fff"/><polygon points="70.47 39.25 70.47 30.68 35.68 30.68 35.68 71.83 44.51 71.83 44.51 55.16 64.08 55.16 64.08 46.59 44.51 46.59 44.51 39.25 70.47 39.25" fill="#fff"/><path d="M98.26,37h0c-0.06-.22-0.14-0.44-0.2-0.67q-0.26-.9-0.55-1.79c-0.11-.33-0.21-0.66-0.33-1v-0.1h0c-0.32-.9-0.65-1.81-1-2.7h-9c0.46,0.88.9,1.78,1.3,2.7h0a42,42,0,1,1-18-19.89V4.4A50,50,0,1,0,98.26,37Z" transform="translate(0.03 -0.01)" fill="#fff"/></svg>